PathFileType	4	(X/Y/Z)	G:\マイドライブ\biomec\experimentalData\240725\SJ2.trc
DataRate	CameraRate	NumFrames	NumMarkers	Units	OrigDataRate	OrigDataStartFrame	OrigNumFrames
200.00	200.00	      5	52	mm	200.00	463	      1851
Frame#	Time	handR			wrRI			wrRO			elbRI			elbRO			shRF			shRU			shRB			handL			wrLI			wrLO			elbLI			elbLO			shLF			shLU			shLB			toeR			baRI			baRO			heelR			anRI			anRO			knRI			knRO			troR			toeL			baLI			baLO			heelL			anLI			anLO			knLI			knLO			troL			head			earR			earL			clav			c7			ribR			ribL			xiph			ASISR			ASISL			PSISR			PSISL			t8			t11			L1			L3			LS			COX			
		X1	Y1	Z1	X2	Y2	Z2	X3	Y3	Z3	X4	Y4	Z4	X5	Y5	Z5	X6	Y6	Z6	X7	Y7	Z7	X8	Y8	Z8	X9	Y9	Z9	X10	Y10	Z10	X11	Y11	Z11	X12	Y12	Z12	X13	Y13	Z13	X14	Y14	Z14	X15	Y15	Z15	X16	Y16	Z16	X17	Y17	Z17	X18	Y18	Z18	X19	Y19	Z19	X20	Y20	Z20	X21	Y21	Z21	X22	Y22	Z22	X23	Y23	Z23	X24	Y24	Z24	X25	Y25	Z25	X26	Y26	Z26	X27	Y27	Z27	X28	Y28	Z28	X29	Y29	Z29	X30	Y30	Z30	X31	Y31	Z31	X32	Y32	Z32	X33	Y33	Z33	X34	Y34	Z34	X35	Y35	Z35	X36	Y36	Z36	X37	Y37	Z37	X38	Y38	Z38	X39	Y39	Z39	X40	Y40	Z40	X41	Y41	Z41	X42	Y42	Z42	X43	Y43	Z43	X44	Y44	Z44	X45	Y45	Z45	X46	Y46	Z46	X47	Y47	Z47	X48	Y48	Z48	X49	Y49	Z49	X50	Y50	Z50	X51	Y51	Z51	X52	Y52	Z52	

463	2.310	536.83362	709.71545	1019.29883	478.28995	649.06464	1016.99365	469.43399	699.33813	1069.86243	366.91736	588.30273	1233.57935	405.17621	519.21027	1216.05090	682.09540	639.49567	1307.15601	585.93793	631.73590	1367.08691	647.27344	617.11395	1360.16138	556.86871	1020.14453	1064.37000	510.73734	1091.02441	1077.14270	502.03098	1030.51697	1123.86621	474.33472	1152.40405	1306.51477	534.61395	1207.19910	1285.72424	737.32758	966.07306	1335.05872	710.29791	993.02850	1393.30212	633.19928	985.93567	1394.95654	701.06036	731.79944	49.45389	627.16412	791.32690	37.18846	585.22620	671.76056	38.23487	420.80179	789.76929	41.16172	515.48199	809.90942	113.49290	479.99396	719.59839	103.94696	606.62738	810.54724	466.61362	598.31274	701.55878	469.12009	483.47916	711.10651	851.26691	698.07721	1088.57617	64.70967	627.47882	1038.89795	66.53774	599.56213	1148.72156	66.52591	414.28348	1082.60510	79.48066	519.95709	1036.15015	160.23845	491.69183	1127.68005	144.26834	614.10278	986.06738	495.49304	617.43506	1097.96838	513.02014	508.03540	1056.26392	878.70068	909.08466	758.96545	1536.98071	807.07141	697.78156	1389.54919	837.07367	854.52844	1388.72046	724.72754	809.29364	1295.80090	672.54303	806.72980	1429.46509	575.69604	749.69098	1050.59485	591.53357	970.29980	1072.07532	679.32043	830.34540	1148.77051	559.53888	767.55603	919.32434	569.03363	985.12372	959.40613	402.07578	816.92798	999.79364	411.70474	936.64276	1018.39532	499.24734	844.98682	1279.22485	454.18381	856.53973	1154.06433	440.69843	865.70068	1094.13281	421.90643	870.12396	1043.43469	393.92410	878.58813	1006.37878	348.05768	894.69293	901.21161	
464	2.315	537.09692	709.04523	1016.96301	478.89600	648.22931	1014.55347	470.57462	697.54156	1067.25464	369.18317	585.62787	1231.54077	408.05438	516.92957	1213.50989	683.57697	639.96942	1304.75745	587.77368	630.95032	1364.93005	649.19519	616.49585	1358.00989	556.88361	1018.47211	1063.07031	511.00153	1089.22229	1074.65503	501.88159	1028.96130	1121.64355	474.60910	1151.64185	1303.81409	534.46564	1206.61792	1282.70593	737.64667	965.79474	1332.55518	711.09229	992.71167	1390.71545	634.12555	985.51672	1392.97986	701.04102	731.82825	49.46804	627.15710	791.35907	37.16119	585.25317	671.81024	38.29208	420.79843	789.77582	41.14348	515.58466	809.97614	113.54414	480.10394	719.57941	103.92336	607.57227	810.37927	466.31754	599.86206	701.25854	468.58453	482.92770	710.63031	849.95691	699.42914	1087.04590	64.71457	628.91028	1037.22656	66.23643	601.03973	1147.04077	65.89500	415.54105	1080.78125	77.83759	520.67798	1034.46021	159.58975	492.28085	1126.33984	143.32028	613.42578	985.25586	494.85266	616.77026	1097.12256	512.58405	506.53070	1055.59900	878.05597	910.40057	759.22711	1534.79297	808.52484	697.85748	1387.05859	838.04913	854.66449	1386.41235	725.67310	809.27875	1293.66357	674.76642	805.67279	1426.76550	575.38843	749.20258	1048.77576	590.89685	969.58868	1070.83923	679.39984	830.12463	1146.66846	558.65869	767.41583	917.53650	567.47809	984.36584	958.38989	401.31985	815.87006	998.83655	410.57269	935.54944	1017.76074	500.00378	843.73328	1277.69409	453.92706	855.10492	1152.91675	440.34900	864.42383	1093.24683	421.02161	868.67279	1042.48462	392.88992	877.44714	1005.59113	346.60809	893.81207	900.26514	
465	2.320	537.39441	708.40479	1014.57349	479.65649	647.28467	1012.20575	471.04794	696.30383	1065.13916	371.45871	583.11761	1229.31873	410.94577	514.76270	1210.95044	684.31396	643.09900	1302.17407	589.79639	630.31146	1362.77185	651.31366	616.06891	1355.56616	557.10565	1016.49457	1061.34070	511.22943	1087.64783	1072.03101	501.38998	1027.64587	1119.29321	474.67331	1150.91785	1301.11011	534.56860	1205.85815	1279.66772	738.08087	965.58008	1330.19116	712.47754	992.29236	1388.42029	635.06995	985.23474	1390.78979	701.03607	731.86542	49.49093	627.15619	791.40973	37.14004	585.24811	671.86841	38.39391	420.77127	789.79297	41.13024	515.74506	810.05939	113.52377	480.22641	719.57001	103.92481	608.86743	810.26575	465.77951	601.50122	700.96375	468.21359	482.21655	710.00610	848.80676	700.66888	1085.55835	64.63979	630.12128	1035.77930	66.15237	602.00055	1145.49109	65.46207	416.66586	1079.15942	76.56410	520.91663	1033.45178	158.42212	493.28961	1124.55469	142.08093	612.93988	983.93909	494.62354	616.13660	1095.87805	512.07635	504.83423	1055.10095	877.42090	911.88086	759.54840	1532.37878	810.20374	697.91791	1384.63501	839.20819	854.92981	1384.21936	726.50250	809.23883	1291.07800	675.69025	805.10132	1425.20361	575.35669	748.44775	1046.80823	590.22430	968.82886	1069.27026	679.68274	830.09924	1144.67236	557.56067	766.98547	916.02893	566.25189	984.03680	957.11188	400.44534	814.85913	997.58466	409.51492	934.48859	1016.86096	500.46161	842.77277	1276.63464	453.93268	853.88208	1151.94360	439.72711	863.12628	1092.30615	420.34085	867.69293	1041.53955	392.01483	876.47473	1004.72644	345.36078	892.76257	899.40137	
466	2.325	537.68677	707.66675	1012.22321	479.97864	646.60760	1009.69714	471.47360	695.23138	1062.83911	373.53217	580.46967	1227.08655	413.56741	512.47455	1208.44849	686.18750	642.64111	1299.96460	591.72363	629.07660	1360.36902	653.34003	615.29230	1353.29297	556.73505	1014.56976	1059.49219	511.14178	1086.10266	1069.40320	501.03799	1026.58655	1116.97095	474.97339	1150.36072	1298.28711	534.79321	1205.13843	1276.44116	737.91248	965.24329	1327.59656	712.72003	992.85187	1386.12256	635.75659	985.09033	1388.76978	701.04816	731.89600	49.48085	627.15417	791.43945	37.10608	585.26367	671.95544	38.46844	420.76959	789.79333	41.11484	515.75293	810.15887	113.49228	480.34549	719.56494	103.89840	610.23608	810.10944	465.30630	602.79431	700.77307	467.79453	481.31088	709.35748	847.60620	701.70148	1084.20825	64.52607	631.30841	1034.35706	65.78482	603.07703	1143.86157	64.78516	417.59558	1077.40112	74.90912	522.11469	1031.34631	157.52678	493.82291	1123.04443	140.92325	612.37439	982.80731	494.36957	615.37238	1094.92139	511.52325	503.27023	1054.66406	876.77570	913.03912	760.04962	1529.80469	811.70685	698.04517	1382.27197	840.27393	855.05920	1381.44812	727.29846	809.39832	1288.72620	677.05865	804.77484	1422.73206	575.10443	747.84583	1044.87671	589.87238	968.09686	1067.72937	679.72101	829.83490	1142.36963	556.70050	766.66235	914.28632	564.56104	983.68719	956.06226	399.53668	813.72534	996.63861	408.27740	933.35925	1015.98926	501.15607	841.43146	1274.97168	454.07843	852.50378	1150.77600	439.27820	861.97205	1091.32361	419.67245	866.43530	1040.62109	390.96875	875.35535	1003.78497	344.05179	891.98511	898.50763	
467	2.330	537.55322	707.15161	1009.92053	480.41666	645.92297	1007.26465	471.98782	694.10071	1060.68677	375.78003	577.97552	1224.90613	416.20010	510.50412	1205.91614	687.85968	642.34430	1297.38831	593.77026	628.18414	1358.10498	655.41284	615.09656	1350.75159	556.65076	1013.32306	1057.62524	510.96436	1084.67224	1066.74023	500.64655	1025.67126	1114.61987	475.32245	1150.00378	1295.30371	534.91107	1204.75256	1273.16296	737.87567	964.92810	1325.09729	713.39081	992.85822	1383.77246	636.44177	984.83240	1386.53967	701.04333	731.94757	49.47322	627.16315	791.47601	37.05515	585.27600	672.01666	38.55054	420.77481	789.82959	41.08298	515.81659	810.25317	113.47868	480.46799	719.57343	103.88361	611.20862	809.99835	465.07458	604.46027	700.46619	467.25836	480.83435	708.94055	846.18774	702.86108	1082.74377	64.58746	632.58038	1032.53845	65.16857	604.19659	1142.57886	64.04802	418.93857	1075.76050	73.27659	522.89435	1029.84875	156.62827	494.48282	1121.58484	139.74800	611.75391	981.86145	494.01379	614.65417	1094.15186	510.64359	501.54233	1054.16565	875.99536	914.45398	760.22650	1527.61646	813.39142	698.27960	1379.72632	841.12811	855.09930	1379.18701	728.01654	809.63855	1286.31812	678.27319	804.25214	1420.78833	574.93732	747.16089	1042.79175	589.34229	967.31073	1066.15002	680.03259	829.66412	1140.24048	555.76898	766.43640	912.63147	563.40125	983.08173	954.86078	398.67416	812.83386	995.36804	407.20099	932.52740	1015.18958	501.91302	840.31073	1273.76135	453.98557	851.44336	1149.54980	439.13702	860.85065	1090.02783	418.96951	865.49622	1039.59119	390.42575	874.37653	1002.52533	342.73022	891.01501	897.72693	
